<svg version="1.1" id="Layer_1" xmlns="http://www.w3.org/2000/svg" xmlns:xlink="http://www.w3.org/1999/xlink" x="0px" y="0px"
	 width="100%" viewBox="0 0 512 512" enable-background="new 0 0 512 512" xml:space="preserve">
<path fill="#010000" opacity="1.000000" stroke="none" 
	d="
M1.000000,188.000000 
	C1.000000,125.333336 1.000000,63.166668 1.000000,1.000000 
	C171.666672,1.000000 342.333344,1.000000 513.000000,1.000000 
	C513.000000,171.666672 513.000000,342.333344 513.000000,513.000000 
	C342.333344,513.000000 171.666672,513.000000 1.000000,513.000000 
	C1.000000,404.833344 1.000000,296.666656 1.000000,188.000000 
M234.242386,341.040833 
	C234.893097,340.764832 235.543823,340.488831 236.884827,340.081848 
	C283.417511,312.292877 323.617340,277.792938 353.181854,231.276245 
	C332.730316,231.276245 313.121124,231.276245 293.616882,231.276245 
	C275.839142,280.493195 266.758972,297.315704 234.912659,339.718536 
	C234.480316,340.049957 234.047974,340.381348 233.774796,341.088257 
	C233.713882,340.943542 233.652969,340.798859 234.242386,341.040833 
M282.925415,420.253693 
	C281.958710,415.675476 278.678040,414.962402 274.644531,414.966583 
	C225.500137,415.017578 176.355667,414.999603 127.211220,415.001190 
	C126.378487,415.001221 125.536034,414.944427 124.714722,415.047058 
	C121.275032,415.476929 119.152336,417.415436 119.089500,420.900757 
	C119.026466,424.397064 121.101028,426.503906 124.524208,426.899414 
	C126.652084,427.145203 128.839767,426.873291 131.927094,426.984528 
	C165.586807,426.989532 199.246521,426.995209 232.906235,426.999237 
	C247.069992,427.000916 261.233765,426.986816 275.397491,427.006744 
	C279.538116,427.012573 282.581085,425.760193 282.925415,420.253693 
M135.022034,449.948395 
	C135.014374,459.912262 134.964706,469.876282 135.010590,479.839905 
	C135.058914,490.332458 140.562637,496.803650 151.899200,498.967804 
	C183.868301,498.977814 215.837418,499.015778 247.806473,498.982483 
	C258.762390,498.971100 266.719940,491.817139 266.924683,481.468903 
	C267.138641,470.654694 266.882202,459.831238 266.963287,448.101166 
	C266.963287,445.171295 266.963287,442.241455 266.963287,439.298645 
	C222.649155,439.298645 178.975693,439.298645 135.146606,439.298645 
	C135.146606,442.753601 135.146606,445.887115 135.022034,449.948395 
M155.140900,324.798157 
	C155.140900,324.798157 155.170700,324.768341 155.039261,324.097260 
	C146.701614,310.506989 137.531784,297.350922 130.173874,283.249451 
	C101.953506,229.164703 90.146179,171.143112 91.184746,110.450859 
	C91.708298,79.855965 98.538757,50.802322 116.949509,24.812422 
	C119.463036,21.876564 121.976562,18.940706 124.897514,15.528964 
	C123.110977,15.338702 122.149872,15.197096 121.183746,15.139069 
	C64.504425,11.734867 15.450879,57.502625 15.035587,114.339951 
	C14.740069,154.785126 25.404387,192.318817 46.148640,226.925568 
	C75.142792,275.295258 116.550369,310.767883 164.251907,339.580200 
	C164.857819,339.946198 165.668457,339.973236 167.791275,340.523071 
	C163.316574,334.960968 159.705872,330.472839 155.999771,325.427246 
	C155.714020,325.209137 155.428268,324.991058 155.140900,324.798157 
M410.642853,321.385803 
	C392.318604,314.023041 374.218597,326.035797 375.262909,345.642181 
	C375.685242,353.571686 377.697510,361.882904 380.996094,369.102051 
	C389.587280,387.904144 405.189362,399.998413 423.131836,409.298096 
	C424.123718,409.812225 425.728668,409.143494 427.753571,408.956390 
	C436.135590,402.996674 445.084167,397.681732 452.769287,390.928955 
	C464.847595,380.315918 472.546539,366.870636 474.676300,350.578247 
	C476.385590,337.502411 471.351837,326.701233 460.906403,321.600525 
	C450.283997,316.413422 439.647888,318.825043 430.313904,328.537170 
	C426.675934,332.322510 423.421173,332.166290 419.617798,328.564392 
	C417.023651,326.107635 413.968475,324.137665 410.642853,321.385803 
M461.970398,164.314163 
	C456.432892,169.043167 452.228912,167.414627 450.946014,159.189224 
	C449.251709,146.850876 442.316681,138.633484 431.229370,135.826706 
	C420.246796,133.046463 410.390289,137.068741 402.897614,147.301056 
	C401.939819,148.609100 400.666962,149.686432 398.789978,150.844940 
	C391.673981,150.602341 389.830444,147.150909 393.595978,139.681351 
	C395.572845,137.270233 397.549713,134.859100 399.505310,132.473953 
	C390.686676,117.307648 370.728027,114.310059 359.542786,126.363968 
	C362.320892,129.597656 365.095642,132.827438 368.021606,136.756592 
	C372.252625,143.667252 374.614990,151.166199 374.927795,159.264069 
	C375.113129,164.062134 372.933807,167.034470 369.172882,166.919327 
	C364.589783,166.779022 363.644745,163.701797 362.795441,159.647141 
	C361.571136,153.801819 359.152771,148.206589 357.068329,141.870148 
	C342.651947,122.526413 314.657562,121.933464 302.531708,140.363327 
	C307.675659,143.224899 312.841370,146.098587 318.294891,149.581573 
	C320.382385,151.679550 322.530304,153.721466 324.542877,155.889008 
	C327.363831,158.927185 328.216156,162.223129 324.914948,165.439911 
	C322.232056,168.054169 318.832977,167.297424 315.507690,163.856171 
	C313.476562,161.754211 311.196442,159.892853 308.699127,157.323990 
	C295.666473,148.939575 281.159790,148.906509 269.404175,157.234451 
	C258.078522,165.257812 252.860016,179.113953 255.985641,192.863297 
	C259.108368,206.599899 269.971741,216.242020 285.896606,218.870300 
	C345.985382,218.904022 406.074127,218.944366 466.162903,218.935715 
	C467.772461,218.935486 469.381989,218.404694 471.789062,218.188385 
	C490.038910,214.275482 501.903717,196.886093 498.432251,179.139359 
	C494.939209,161.282211 478.459839,148.742264 462.441650,151.505997 
	C462.441650,155.650299 462.441650,159.745529 461.970398,164.314163 
M244.940308,198.375854 
	C237.790985,172.886810 251.477692,146.888092 276.793640,141.200043 
	C286.065155,139.116898 292.015930,134.842255 297.179932,127.955994 
	C298.005310,126.855331 298.742401,125.374481 298.783752,124.046463 
	C299.526428,100.189087 296.770081,76.833076 287.865875,54.514290 
	C282.690491,41.542027 275.763214,29.692066 264.274231,21.091650 
	C261.655029,19.130964 259.234619,18.719412 255.982269,19.788013 
	C236.777435,26.097990 220.856262,37.076897 208.149002,52.741329 
	C202.238892,60.026810 199.660828,60.073658 193.887802,52.929695 
	C181.097321,37.101860 165.126587,25.818394 145.586212,19.954126 
	C143.311981,19.271606 139.545013,19.668394 137.997574,21.154900 
	C132.288895,26.638800 126.248421,32.180153 122.093056,38.804203 
	C108.540504,60.408245 103.825729,84.732697 103.170135,109.806076 
	C102.237717,145.466553 106.467705,180.616455 116.109161,214.995361 
	C130.661545,266.885284 155.603012,312.919922 193.923050,351.270874 
	C198.026550,355.377655 203.770721,355.325317 207.831268,351.242340 
	C233.211624,325.721893 253.527863,296.671387 268.178925,263.781189 
	C273.003204,252.951141 277.049561,241.774612 281.535431,230.546799 
	C263.119354,226.289185 251.177658,216.058533 244.940308,198.375854 
M313.625153,18.864458 
	C301.914886,15.582122 290.067169,14.100098 277.294861,15.616406 
	C304.117371,45.131313 310.227783,80.709755 311.249481,117.902565 
	C311.705414,117.966278 312.075653,118.136497 312.352478,118.039658 
	C323.953674,113.980972 335.435272,113.873528 346.922516,118.651405 
	C347.960571,119.083160 350.046417,118.154045 351.087189,117.228745 
	C356.836090,112.117775 363.346802,108.491302 370.992310,107.652306 
	C375.981567,107.104797 381.079681,107.549057 386.129303,107.549057 
	C385.241730,76.786057 363.030853,33.576237 313.625153,18.864458 
M167.259689,341.538208 
	C167.413788,341.176453 167.567886,340.814697 167.722015,340.452911 
	C167.461136,340.389221 167.200241,340.325531 166.939346,340.261871 
	C166.902039,340.520233 166.864716,340.778564 167.259689,341.538208 
z"/>
<path fill="#FE78A5" opacity="1.000000" stroke="none" 
	d="
M245.032837,198.767395 
	C251.177658,216.058533 263.119354,226.289185 281.535431,230.546799 
	C277.049561,241.774612 273.003204,252.951141 268.178925,263.781189 
	C253.527863,296.671387 233.211624,325.721893 207.831268,351.242340 
	C203.770721,355.325317 198.026550,355.377655 193.923050,351.270874 
	C155.603012,312.919922 130.661545,266.885284 116.109161,214.995361 
	C106.467705,180.616455 102.237717,145.466553 103.170135,109.806076 
	C103.825729,84.732697 108.540504,60.408245 122.093056,38.804203 
	C126.248421,32.180153 132.288895,26.638800 137.997574,21.154900 
	C139.545013,19.668394 143.311981,19.271606 145.586212,19.954126 
	C165.126587,25.818394 181.097321,37.101860 193.887802,52.929695 
	C199.660828,60.073658 202.238892,60.026810 208.149002,52.741329 
	C220.856262,37.076897 236.777435,26.097990 255.982269,19.788013 
	C259.234619,18.719412 261.655029,19.130964 264.274231,21.091650 
	C275.763214,29.692066 282.690491,41.542027 287.865875,54.514290 
	C296.770081,76.833076 299.526428,100.189087 298.783752,124.046463 
	C298.742401,125.374481 298.005310,126.855331 297.179932,127.955994 
	C292.015930,134.842255 286.065155,139.116898 276.793640,141.200043 
	C251.477692,146.888092 237.790985,172.886810 245.032837,198.767395 
z"/>
<path fill="#E2EAF8" opacity="1.000000" stroke="none" 
	d="
M470.991516,218.121307 
	C469.381989,218.404694 467.772461,218.935486 466.162903,218.935715 
	C406.074127,218.944366 345.985382,218.904022 285.373291,218.423553 
	C284.499481,217.420471 284.241364,216.770111 283.784943,216.321564 
	C273.536835,206.251038 271.215332,193.929367 275.788422,180.981812 
	C280.568115,167.449326 291.405914,160.925613 305.654144,159.917816 
	C306.819977,159.835358 307.905365,158.615051 309.028137,157.923431 
	C311.196442,159.892853 313.476562,161.754211 315.507690,163.856171 
	C318.832977,167.297424 322.232056,168.054169 324.914948,165.439911 
	C328.216156,162.223129 327.363831,158.927185 324.542877,155.889008 
	C322.530304,153.721466 320.382385,151.679550 318.192200,148.927917 
	C318.424469,147.718048 318.625854,146.962906 319.114136,146.634918 
	C329.225189,139.843002 339.932068,138.819855 351.123291,143.603760 
	C353.535706,144.634979 355.752289,145.974792 357.243958,142.504654 
	C359.152771,148.206589 361.571136,153.801819 362.795441,159.647141 
	C363.644745,163.701797 364.589783,166.779022 369.172882,166.919327 
	C372.933807,167.034470 375.113129,164.062134 374.927795,159.264069 
	C374.614990,151.166199 372.252625,143.667252 368.309784,136.248535 
	C377.557037,132.476273 385.667938,134.049927 393.008026,140.020081 
	C389.830444,147.150909 391.673981,150.602341 399.578888,150.876465 
	C402.083130,150.376160 403.860352,149.989487 405.503632,149.288696 
	C415.492188,145.028961 425.538635,145.921494 432.559814,153.686966 
	C438.136017,159.854233 443.460541,161.535950 450.814667,159.992599 
	C452.228912,167.414627 456.432892,169.043167 462.596130,164.131195 
	C477.022278,169.087646 484.319672,185.931915 479.995483,200.719635 
	C478.196503,206.871780 474.063293,212.341370 470.991516,218.121307 
z"/>
<path fill="#F35689" opacity="1.000000" stroke="none" 
	d="
M116.431839,25.190830 
	C98.538757,50.802322 91.708298,79.855965 91.184746,110.450859 
	C90.146179,171.143112 101.953506,229.164703 130.173874,283.249451 
	C137.531784,297.350922 146.701614,310.506989 154.741028,324.474060 
	C153.374420,324.415894 152.136734,324.197266 151.263092,323.513489 
	C138.329269,313.390961 124.844193,303.866333 112.720703,292.845795 
	C101.314178,282.476990 90.837929,270.951630 80.886162,259.147827 
	C67.109413,242.807236 56.065746,224.581924 48.105076,204.676300 
	C40.361053,185.312439 35.467567,165.325684 33.720165,144.379684 
	C32.328842,127.701889 33.191525,111.484390 38.350769,95.695122 
	C44.459663,76.999565 55.133148,61.155613 70.160362,48.286167 
	C83.679871,36.707932 98.884308,28.634989 116.431839,25.190830 
z"/>
<path fill="#F25588" opacity="1.000000" stroke="none" 
	d="
M314.020264,18.944538 
	C363.030853,33.576237 385.241730,76.786057 386.129303,107.549057 
	C381.079681,107.549057 375.981567,107.104797 370.992310,107.652306 
	C363.346802,108.491302 356.836090,112.117775 351.087189,117.228745 
	C350.046417,118.154045 347.960571,119.083160 346.922516,118.651405 
	C335.435272,113.873528 323.953674,113.980972 312.352478,118.039658 
	C312.075653,118.136497 311.705414,117.966278 311.249481,117.902565 
	C310.227783,80.709755 304.117371,45.131313 277.294861,15.616406 
	C290.067169,14.100098 301.914886,15.582122 314.020264,18.944538 
z"/>
<path fill="#B57468" opacity="1.000000" stroke="none" 
	d="
M266.831390,449.011810 
	C266.882202,459.831238 267.138641,470.654694 266.924683,481.468903 
	C266.719940,491.817139 258.762390,498.971100 247.806473,498.982483 
	C215.837418,499.015778 183.868301,498.977814 151.433258,498.511505 
	C146.599411,490.981750 144.344696,483.500000 144.881104,474.981171 
	C145.424377,466.353241 144.998657,457.664246 145.466187,449.001587 
	C186.233810,449.004700 226.532593,449.008270 266.831390,449.011810 
z"/>
<path fill="#F96690" opacity="1.000000" stroke="none" 
	d="
M411.119415,321.950043 
	C413.968475,324.137665 417.023651,326.107635 419.617798,328.564392 
	C423.421173,332.166290 426.675934,332.322510 430.313904,328.537170 
	C439.647888,318.825043 450.283997,316.413422 460.906403,321.600525 
	C471.351837,326.701233 476.385590,337.502411 474.676300,350.578247 
	C472.546539,366.870636 464.847595,380.315918 452.769287,390.928955 
	C445.084167,397.681732 436.135590,402.996674 427.048462,408.951233 
	C422.760590,406.555695 419.010498,404.379822 415.624084,401.737823 
	C400.921906,390.267517 388.738495,377.203125 385.289612,357.729095 
	C382.342590,341.088837 394.741608,323.301178 411.119415,321.950043 
z"/>
<path fill="#FC77A3" opacity="1.000000" stroke="none" 
	d="
M116.690674,25.001625 
	C98.884308,28.634989 83.679871,36.707932 70.160362,48.286167 
	C55.133148,61.155613 44.459663,76.999565 38.350769,95.695122 
	C33.191525,111.484390 32.328842,127.701889 33.720165,144.379684 
	C35.467567,165.325684 40.361053,185.312439 48.105076,204.676300 
	C56.065746,224.581924 67.109413,242.807236 80.886162,259.147827 
	C90.837929,270.951630 101.314178,282.476990 112.720703,292.845795 
	C124.844193,303.866333 138.329269,313.390961 151.263092,323.513489 
	C152.136734,324.197266 153.374420,324.415894 154.806763,324.809601 
	C155.170700,324.768341 155.140900,324.798157 155.194717,325.057281 
	C155.530746,325.539154 155.812958,325.761932 156.095169,325.984680 
	C159.705872,330.472839 163.316574,334.960968 167.791275,340.523071 
	C165.668457,339.973236 164.857819,339.946198 164.251907,339.580200 
	C116.550369,310.767883 75.142792,275.295258 46.148640,226.925568 
	C25.404387,192.318817 14.740069,154.785126 15.035587,114.339951 
	C15.450879,57.502625 64.504425,11.734867 121.183746,15.139069 
	C122.149872,15.197096 123.110977,15.338702 124.897514,15.528964 
	C121.976562,18.940706 119.463036,21.876564 116.690674,25.001625 
z"/>
<path fill="#F25588" opacity="1.000000" stroke="none" 
	d="
M235.326050,339.361908 
	C266.758972,297.315704 275.839142,280.493195 293.616882,231.276245 
	C313.121124,231.276245 332.730316,231.276245 353.181854,231.276245 
	C323.617340,277.792938 283.417511,312.292877 236.331055,339.925903 
	C235.626877,339.633911 235.476471,339.497925 235.326050,339.361908 
z"/>
<path fill="#EDF3FC" opacity="1.000000" stroke="none" 
	d="
M308.863647,157.623718 
	C307.905365,158.615051 306.819977,159.835358 305.654144,159.917816 
	C291.405914,160.925613 280.568115,167.449326 275.788422,180.981812 
	C271.215332,193.929367 273.536835,206.251038 283.784943,216.321564 
	C284.241364,216.770111 284.499481,217.420471 284.920471,218.292313 
	C269.971741,216.242020 259.108368,206.599899 255.985641,192.863297 
	C252.860016,179.113953 258.078522,165.257812 269.404175,157.234451 
	C281.159790,148.906509 295.666473,148.939575 308.863647,157.623718 
z"/>
<path fill="#AF6960" opacity="1.000000" stroke="none" 
	d="
M266.897339,448.556488 
	C226.532593,449.008270 186.233810,449.004700 145.016174,448.994232 
	C141.113754,448.998444 138.130173,449.009521 135.146606,449.020630 
	C135.146606,445.887115 135.146606,442.753601 135.146606,439.298645 
	C178.975693,439.298645 222.649155,439.298645 266.963287,439.298645 
	C266.963287,442.241455 266.963287,445.171295 266.897339,448.556488 
z"/>
<path fill="#EDF3FC" opacity="1.000000" stroke="none" 
	d="
M471.390259,218.154846 
	C474.063293,212.341370 478.196503,206.871780 479.995483,200.719635 
	C484.319672,185.931915 477.022278,169.087646 462.831726,163.894501 
	C462.441650,159.745529 462.441650,155.650299 462.441650,151.505997 
	C478.459839,148.742264 494.939209,161.282211 498.432251,179.139359 
	C501.903717,196.886093 490.038910,214.275482 471.390259,218.154846 
z"/>
<path fill="#FEE5D3" opacity="1.000000" stroke="none" 
	d="
M131.000610,426.833740 
	C128.839767,426.873291 126.652084,427.145203 124.524208,426.899414 
	C121.101028,426.503906 119.026466,424.397064 119.089500,420.900757 
	C119.152336,417.415436 121.275032,415.476929 124.714722,415.047058 
	C125.536034,414.944427 126.378487,415.001221 127.211220,415.001190 
	C176.355667,414.999603 225.500137,415.017578 274.644531,414.966583 
	C278.678040,414.962402 281.958710,415.675476 282.405457,420.621460 
	C235.722900,420.993256 189.560181,421.036163 143.397736,420.947571 
	C138.158630,420.937500 133.931046,422.334961 131.000610,426.833740 
z"/>
<path fill="#FFD5B8" opacity="1.000000" stroke="none" 
	d="
M131.463852,426.909149 
	C133.931046,422.334961 138.158630,420.937500 143.397736,420.947571 
	C189.560181,421.036163 235.722900,420.993256 282.341248,420.987762 
	C282.581085,425.760193 279.538116,427.012573 275.397491,427.006744 
	C261.233765,426.986816 247.069992,427.000916 232.906235,426.999237 
	C199.246521,426.995209 165.586807,426.989532 131.463852,426.909149 
z"/>
<path fill="#F975A1" opacity="1.000000" stroke="none" 
	d="
M410.881134,321.667908 
	C394.741608,323.301178 382.342590,341.088837 385.289612,357.729095 
	C388.738495,377.203125 400.921906,390.267517 415.624084,401.737823 
	C419.010498,404.379822 422.760590,406.555695 426.695801,408.985718 
	C425.728668,409.143494 424.123718,409.812225 423.131836,409.298096 
	C405.189362,399.998413 389.587280,387.904144 380.996094,369.102051 
	C377.697510,361.882904 375.685242,353.571686 375.262909,345.642181 
	C374.218597,326.035797 392.318604,314.023041 410.881134,321.667908 
z"/>
<path fill="#ECF2FB" opacity="1.000000" stroke="none" 
	d="
M357.156128,142.187408 
	C355.752289,145.974792 353.535706,144.634979 351.123291,143.603760 
	C339.932068,138.819855 329.225189,139.843002 319.114136,146.634918 
	C318.625854,146.962906 318.424469,147.718048 318.048279,148.623260 
	C312.841370,146.098587 307.675659,143.224899 302.531708,140.363327 
	C314.657562,121.933464 342.651947,122.526413 357.156128,142.187408 
z"/>
<path fill="#EDF3FC" opacity="1.000000" stroke="none" 
	d="
M450.880341,159.590912 
	C443.460541,161.535950 438.136017,159.854233 432.559814,153.686966 
	C425.538635,145.921494 415.492188,145.028961 405.503632,149.288696 
	C403.860352,149.989487 402.083130,150.376160 399.953918,150.889313 
	C400.666962,149.686432 401.939819,148.609100 402.897614,147.301056 
	C410.390289,137.068741 420.246796,133.046463 431.229370,135.826706 
	C442.316681,138.633484 449.251709,146.850876 450.880341,159.590912 
z"/>
<path fill="#EBF1FA" opacity="1.000000" stroke="none" 
	d="
M393.302002,139.850708 
	C385.667938,134.049927 377.557037,132.476273 368.234192,135.898834 
	C365.095642,132.827438 362.320892,129.597656 359.542786,126.363968 
	C370.728027,114.310059 390.686676,117.307648 399.505310,132.473953 
	C397.549713,134.859100 395.572845,137.270233 393.302002,139.850708 
z"/>
<path fill="#C38276" opacity="1.000000" stroke="none" 
	d="
M135.084320,449.484497 
	C138.130173,449.009521 141.113754,448.998444 144.547348,448.994690 
	C144.998657,457.664246 145.424377,466.353241 144.881104,474.981171 
	C144.344696,483.500000 146.599411,490.981750 150.972992,498.410706 
	C140.562637,496.803650 135.058914,490.332458 135.010590,479.839905 
	C134.964706,469.876282 135.014374,459.912262 135.084320,449.484497 
z"/>
<path fill="#FC77A3" opacity="1.000000" stroke="none" 
	d="
M167.043549,341.287567 
	C166.864716,340.778564 166.902039,340.520233 166.939346,340.261841 
	C167.200241,340.325531 167.461136,340.389221 167.722015,340.452942 
	C167.567886,340.814697 167.413788,341.176453 167.043549,341.287567 
z"/>
<path fill="#F25588" opacity="1.000000" stroke="none" 
	d="
M233.615631,340.712769 
	C234.047974,340.381348 234.480316,340.049957 235.119354,339.540222 
	C235.476471,339.497925 235.626877,339.633911 235.985901,339.991394 
	C235.543823,340.488831 234.893097,340.764832 233.944016,340.861877 
	C233.645645,340.682953 233.615631,340.712769 233.615631,340.712769 
z"/>
<path fill="#F35689" opacity="1.000000" stroke="none" 
	d="
M156.047470,325.705963 
	C155.812958,325.761932 155.530746,325.539154 155.195526,325.044678 
	C155.428268,324.991058 155.714020,325.209137 156.047470,325.705963 
z"/>
<path fill="#F25588" opacity="1.000000" stroke="none" 
	d="
M233.618851,340.668549 
	C233.652969,340.798859 233.713882,340.943542 233.695221,340.900513 
	C233.615631,340.712769 233.645645,340.682953 233.618851,340.668549 
z"/>
</svg>